<?xml version="1.0" encoding="UTF-8"?>
<svg id="Capa_2" data-name="Capa 2" xmlns="http://www.w3.org/2000/svg" viewBox="0 0 401 346">
  <g id="Capa_1-2" data-name="Capa 1">
    <g>
      <path d="M373.99,135.01l-1.98-1.01,3,17,1.48-1.99c1.05.7,1.2,1.42,1.43,2.57,2.66,12.78,2.4,27.51,1.06,40.42l-1.98-5.99c-3.57,13.38-3.59,27.02-9.02,39.99v-5.99c-.29-.37-1.08.55-1.47,1.02-2.35,2.81-6.11,12.77-8.35,16.66-9.25,16.05-33.58,48.01-48.84,58.15-5.33,3.54-12.41,6.6-18.32,9.18-.01,2.12,7.59-.19,4.98,2.97-.65.78-15.94,6.52-18.7,7.81-8.23,3.88-14.96,9.64-25.85,9.26-2.63-.09-4-2.74-6.74-1.94-2.4.7-2.46,4.69-5.23,4.96s-3.5-2.44-5.19-2.93c-2.42-.7-3.49.65-4.85.74-.35.02-1.54-3.64-5.93-1.89,1-3.06-1.3-2.9-2,.03-2.08-1.9-5.89-1.61-7.49-2.54-1.31-.76-2.41-7.06-3.82-4.01-.06.14.74,1.13-.13,1.97-12.43,12.04-54.38,2.88-70.27-1.74-65.96-19.18-114.78-77.82-117.77-147.23-1.72-39.94,18.84-88.56,51.05-112.93,17.3-13.08,47.17-34.63,67.17-40.83,31.58-9.79,78.79-9.85,110.3.23,38.98,12.47,97.6,49.46,113.64,88.36,2.58,6.26,8.14,20.33,9.58,26.42.26,1.09.32,2.16.23,3.27ZM45,162v14.5c0,29.58,29.29,73.03,50.99,92.01,18.24,15.96,64.32,40.05,88.58,37.54,5.09-.53,3.98-2.32,7.19-3.8,3.03-1.4,11.95-1.8,13.28-2.72,1.21-.83.96-5.18,4.47-5.17,1.45,0,5.03,2.73,7.27,3.35,2.54.71,16.41,2.87,17.07,3.44.54.48-.16,3.02,1.77,3.72,2.27.82,12.01-.33,14.61-1.16,6-1.91,12.22-9.39,17.85-11.18,23.35-7.43,26.09-12.11,42.38-29.59,22.76-24.43,44.26-53.01,45.17-88.29,1.48-57.49-25.49-99.94-74.6-128.18-42.73-24.58-109.42-33.37-152.93-6.9-16.14,9.82-45.09,27.65-55.92,42.08-17.96,23.93-32.84,57.03-29.16,87.32l1.99-6.99Z"/>
      <path d="M313,296.99c3.2-3.25,5.87-7.21,8.97-10.52,3.96-4.22,8.25-8.84,11.98-12.71,2.75-2.85,5.4-6.14,9.03-7.76.7.73-4.19,6.48-5.02,7.47-4.82,5.74-10.92,12.58-16.5,17.5-1.02.9-7.74,6.69-8.47,6.02Z"/>
    </g>
  </g>
</svg>